<mxfile host="app.diagrams.net" modified="2023-09-07T10:35:57.758Z" agent="Mozilla/5.0 (X11; Linux x86_64) AppleWebKit/537.36 (KHTML, like Gecko) Chrome/116.0.0.0 Safari/537.36" etag="yUX3GirZzDSJTUKtIN8j" version="21.6.9" type="device">
  <diagram name="Page-1" id="HdaGxHlB1xQAiQaXo_UU">
    <mxGraphModel dx="1391" dy="1468" grid="1" gridSize="10" guides="1" tooltips="1" connect="1" arrows="1" fold="1" page="1" pageScale="1" pageWidth="850" pageHeight="1100" math="0" shadow="0">
      <root>
        <mxCell id="0" />
        <mxCell id="1" parent="0" />
        <mxCell id="5uz13Aay6R-MT0YAYzjq-1" value="" style="ellipse;whiteSpace=wrap;html=1;aspect=fixed;fillColor=#f8cecc;strokeColor=#000000;textOpacity=80;opacity=40;" parent="1" vertex="1">
          <mxGeometry x="280" y="160" width="160" height="160" as="geometry" />
        </mxCell>
        <mxCell id="5uz13Aay6R-MT0YAYzjq-2" value="" style="ellipse;whiteSpace=wrap;html=1;aspect=fixed;fillColor=#f8cecc;strokeColor=#000000;opacity=40;strokeWidth=1;" parent="1" vertex="1">
          <mxGeometry x="390" y="160" width="160" height="160" as="geometry" />
        </mxCell>
        <mxCell id="5uz13Aay6R-MT0YAYzjq-4" value="lock_updated" style="text;html=1;strokeColor=none;fillColor=none;align=center;verticalAlign=middle;whiteSpace=wrap;rounded=0;fontSize=18;" parent="1" vertex="1">
          <mxGeometry x="310" y="130" width="60" height="30" as="geometry" />
        </mxCell>
        <mxCell id="5uz13Aay6R-MT0YAYzjq-5" value="" style="endArrow=classic;html=1;rounded=0;" parent="1" edge="1">
          <mxGeometry width="50" height="50" relative="1" as="geometry">
            <mxPoint x="415" y="330" as="sourcePoint" />
            <mxPoint x="414.5" y="247.5" as="targetPoint" />
          </mxGeometry>
        </mxCell>
        <mxCell id="5uz13Aay6R-MT0YAYzjq-7" value="Vulnerabiliites in both:&lt;br style=&quot;font-size: 13px;&quot;&gt;&quot;~not fixed&quot;" style="text;html=1;strokeColor=none;fillColor=none;align=center;verticalAlign=middle;whiteSpace=wrap;rounded=0;fontSize=13;" parent="1" vertex="1">
          <mxGeometry x="350" y="340" width="130" height="30" as="geometry" />
        </mxCell>
        <mxCell id="5uz13Aay6R-MT0YAYzjq-8" value="" style="endArrow=classic;html=1;rounded=0;" parent="1" edge="1">
          <mxGeometry width="50" height="50" relative="1" as="geometry">
            <mxPoint x="240" y="320" as="sourcePoint" />
            <mxPoint x="320" y="240" as="targetPoint" />
          </mxGeometry>
        </mxCell>
        <mxCell id="5uz13Aay6R-MT0YAYzjq-9" value="Vulnerabilities in lock_updated but not in nix_unstable:&lt;br style=&quot;font-size: 13px;&quot;&gt;&quot;~fixed in nix-unstable&quot;" style="text;html=1;strokeColor=none;fillColor=none;align=center;verticalAlign=middle;whiteSpace=wrap;rounded=0;fontSize=13;" parent="1" vertex="1">
          <mxGeometry x="91" y="340" width="180" height="40" as="geometry" />
        </mxCell>
        <mxCell id="5uz13Aay6R-MT0YAYzjq-11" value="" style="endArrow=classic;html=1;rounded=0;" parent="1" edge="1">
          <mxGeometry width="50" height="50" relative="1" as="geometry">
            <mxPoint x="600" y="320" as="sourcePoint" />
            <mxPoint x="520" y="240" as="targetPoint" />
          </mxGeometry>
        </mxCell>
        <mxCell id="5uz13Aay6R-MT0YAYzjq-12" value="Vulnerabilities in lock_updated but not in current:&lt;br style=&quot;font-size: 13px;&quot;&gt;&quot;~introduced by update&quot;" style="text;html=1;strokeColor=none;fillColor=none;align=center;verticalAlign=middle;whiteSpace=wrap;rounded=0;fontSize=13;" parent="1" vertex="1">
          <mxGeometry x="570" y="340" width="180" height="40" as="geometry" />
        </mxCell>
        <mxCell id="5uz13Aay6R-MT0YAYzjq-13" value="nix_unstable" style="text;html=1;strokeColor=none;fillColor=none;align=center;verticalAlign=middle;whiteSpace=wrap;rounded=0;fontSize=18;" parent="1" vertex="1">
          <mxGeometry x="425" y="130" width="130" height="30" as="geometry" />
        </mxCell>
      </root>
    </mxGraphModel>
  </diagram>
</mxfile>
